<svg xmlns="http://www.w3.org/2000/svg" width="32" height="32" viewBox="0 0 32 32" fill="none">
  <path d="M12.2804 26.9392C12.0386 27.1844 11.7113 27.3264 11.3671 27.3357C11.0229 27.345 10.6885 27.2207 10.4338 26.989C10.1792 26.7572 10.024 26.436 10.0009 26.0924C9.97779 25.7489 10.0885 25.4097 10.3098 25.1459L10.3871 25.0606L19.4484 15.9279L10.3951 6.94657C10.1583 6.71161 10.0181 6.39641 10.0023 6.06317C9.98651 5.72994 10.0962 5.40289 10.3098 5.14657L10.3871 5.06057C10.6221 4.82384 10.9374 4.68381 11.2706 4.66814C11.6039 4.65246 11.9309 4.76228 12.1871 4.97591L12.2731 5.05324L22.2731 14.9732C22.5098 15.2083 22.6498 15.5235 22.6655 15.8568C22.6812 16.19 22.5714 16.517 22.3578 16.7732L22.2804 16.8592L12.2804 26.9392Z" fill="#B0BDCE"></path>
</svg>